<?xml version="1.0" encoding="UTF-8"?>
<svg id="Layer_2" data-name="Layer 2" xmlns="http://www.w3.org/2000/svg" viewBox="0 0 1421.7 1489.66">
  <defs>
    <style>
      .cls-1 {
        fill: none;
        stroke: #000;
        stroke-miterlimit: 10;
        stroke-width: 19px;
      }
    </style>
  </defs>
  <path class="cls-1" d="M627.83,169.84S23.1,662.73,173.24,779.04c157.32,30.48,676.47-205.5,603.71-40.31C692.4,939.31,49.15,1487.03,11.99,1480.09S351.13,611.4,1314.25,176.65"/>
  <path class="cls-1" d="M601.41,466.14s82.93-25.3,102.34-81.27-62.1-137.47-109.96,130.32c-15.52,59.51,240.63-135.84,240.63-135.84,0,0,95.73-98.32,85.38-107.38s-116.43,73.74-56.92,97.03c27.17,9.06,128.08-163,134.54-128.08s-59.51,112.55-28.46,93.15,130.66-181.12,112.55-131.96,2.18,59.51,2.18,59.51c0,0,69.29-102.38,57.33-109.96s-1.29,67.27,15.52,59.51S1415.73,7.39,1415.73,7.39"/>
</svg>